PathFileType	4	(X/Y/Z)	9_coords_data.trc
DataRate	CameraRate	NumFrames	NumMarkers	Units	OrigDataRate	OrigDataStartFrame	OrigNumFrames
30.0	30.0	9	21	m	30.0	31	50
Frame#	Time	THUMB_TIP	THUMB_IP	THUMB_MCP	THUMB_CMC	INDEX_TIP	INDEX_DIP	INDEX_PIP	INDEX_MCP	MIDDLE_TIP	MIDDLE_DIP	MIDDLE_PIP	MIDDLE_MCP	RING_TIP	RING_DIP	RING_PIP	RING_MCP	PINKY_TIP	PINKY_DIP	PINKY_PIP	PINKY_MCP	WRIST
X1	Y1	Z1	X2	Y2	Z2	X3	Y3	Z3	X4	Y4	Z4	X5	Y5	Z5	X6	Y6	Z6	X7	Y7	Z7	X8	Y8	Z8	X9	Y9	Z9	X10	Y10	Z10	X11	Y11	Z11	X12	Y12	Z12	X13	Y13	Z13	X14	Y14	Z14	X15	Y15	Z15	X16	Y16	Z16	X17	Y17	Z17	X18	Y18	Z18	X19	Y19	Z19	X20	Y20	Z20	X21	Y21	Z21
30	1.0	-0.013059499740600587	-0.0791708984375	1.026989990234375	-0.017050199508666992	-0.059694099426269534	1.0448599853515625	-0.027660200119018555	-0.04695320129394531	1.070530029296875	-0.04021620178222656	-0.021611200332641602	1.09425	-0.0052106199264526365	-0.01439780044555664	0.95577099609375	-0.012714599609375	-0.017223499298095704	0.9771069946289063	-0.022131599426269532	-0.020114500045776366	0.997822998046875	-0.035518001556396485	-0.022574100494384765	1.034949951171875	-0.008445480346679687	0.02832550048828125	0.949531005859375	-0.014079500198364257	0.02005470085144043	0.972208984375	-0.026816299438476562	0.010865500450134277	0.9978980102539062	-0.043800300598144534	-0.001118899941444397	1.0346099853515625	-0.008792530059814454	0.05341949844360352	0.9692999877929688	-0.020228399276733398	0.045222900390625	0.9895880126953125	-0.035336700439453125	0.03438859939575195	1.0108400268554687	-0.05180099868774414	0.018722900390625	1.043510009765625	-0.021451900482177735	0.068518798828125	1.011760009765625	-0.03441030120849609	0.06135169982910156	1.0247099609375	-0.04605139923095703	0.052997398376464847	1.037050048828125	-0.05596620178222656	0.03747460174560547	1.059469970703125	-0.07389389801025391	-0.010069199562072754	1.11627001953125
31	1.0333333333333334	-0.013951600074768067	-0.08153140258789063	1.02881005859375	-0.017377500534057618	-0.0614369010925293	1.0461600341796875	-0.02765530014038086	-0.047682701110839845	1.0713399658203124	-0.04003300094604492	-0.021738300323486327	1.0948900146484375	-0.008556099891662597	-0.018562599182128905	0.954281005859375	-0.01429990005493164	-0.019988100051879884	0.9763820190429687	-0.02221120071411133	-0.021485599517822265	0.9977940063476562	-0.034055198669433594	-0.02203459930419922	1.0356300048828124	-0.012370800018310547	0.025722600936889647	0.947198974609375	-0.016069799423217773	0.018289300918579103	0.9706290283203125	-0.026804800033569335	0.009994460105895995	0.9975579833984375	-0.041956199645996096	-0.000595555007457733	1.0352099609375	-0.012236300468444825	0.05247069931030274	0.96652001953125	-0.021919500350952147	0.04470600128173828	0.987948974609375	-0.03508679962158203	0.03428150177001953	1.0105999755859374	-0.049826900482177736	0.019194799423217772	1.0444000244140625	-0.023864200592041016	0.07031549835205078	1.0098699951171874	-0.03525569915771484	0.06246969985961914	1.0242900390625	-0.045606300354003905	0.05373989868164063	1.0374300537109375	-0.05409289932250977	0.037967601776123044	1.0601800537109376	-0.07357340240478516	-0.009648590087890626	1.1169200439453124
32	1.0666666666666667	-0.013845700263977051	-0.08252510070800781	1.030199951171875	-0.017052499771118165	-0.06212060165405273	1.0471800537109375	-0.027284299850463867	-0.04789080047607422	1.0721800537109376	-0.03965579986572266	-0.021347900390625	1.0955899658203125	-0.008686770439147949	-0.020922199249267578	0.9543209838867187	-0.013935199737548828	-0.02155999946594238	0.976677978515625	-0.021468099594116212	-0.022335500717163087	0.998301025390625	-0.03289229965209961	-0.021932199478149415	1.036469970703125	-0.01531879997253418	0.0226658992767334	0.94556298828125	-0.017794099807739258	0.016075700759887696	0.9695999755859375	-0.027224000930786134	0.00871111011505127	0.9972340087890625	-0.0404650993347168	-0.000516384005546569	1.035800048828125	-0.015101699829101563	0.050592300415039065	0.9644140014648438	-0.023658100128173827	0.04332040023803711	0.9865900268554687	-0.03538150024414063	0.03350009918212891	1.0101500244140624	-0.04847840118408203	0.019248899459838868	1.0447099609375	-0.026416599273681642	0.070589599609375	1.0083300170898437	-0.03689799880981445	0.0625974006652832	1.0234099731445312	-0.04620249938964844	0.053853099822998046	1.0370899658203125	-0.05315919876098633	0.03825220108032226	1.06027001953125	-0.07334110260009766	-0.009500269889831542	1.117449951171875
33	1.1	-0.012314399719238282	-0.08244100189208985	1.03097998046875	-0.015876999855041506	-0.061987899780273435	1.047969970703125	-0.026521999359130858	-0.04770830154418945	1.072780029296875	-0.03919929885864258	-0.021254199981689453	1.09575	-0.006615530014038086	-0.02098119926452637	0.9552050170898437	-0.012331500053405761	-0.021538999557495116	0.9772550048828125	-0.02023349952697754	-0.022285299301147463	0.9987639770507812	-0.03202790069580078	-0.021780799865722657	1.0368900146484374	-0.016412200927734374	0.021200199127197266	0.9448350219726562	-0.018713199615478515	0.014947699546813966	0.968926025390625	-0.027972999572753905	0.00799525022506714	0.9968200073242187	-0.039944900512695315	-0.000432998001575469	1.0361800537109376	-0.016472200393676757	0.04955149841308594	0.963541015625	-0.024776100158691406	0.042524398803710936	0.9859030151367187	-0.036163898468017576	0.03289450073242187	1.0098400268554688	-0.04784180068969727	0.019324399948120116	1.0448499755859375	-0.027303300857543945	0.07190699768066407	1.0087000122070313	-0.03744490051269531	0.0636442985534668	1.0236500244140625	-0.04663040161132812	0.05461299896240234	1.0374200439453125	-0.05265399932861328	0.038454898834228514	1.0606700439453125	-0.07291799926757812	-0.009274640083312989	1.117449951171875
34	1.1333333333333333	-0.010921899795532226	-0.08168049621582031	1.0311400146484375	-0.014818900108337403	-0.06143989944458008	1.04818994140625	-0.02591160011291504	-0.04733950042724609	1.0730400390625	-0.03882540130615234	-0.020927000045776366	1.0958399658203124	-0.005744510173797608	-0.020621799468994142	0.9554409790039062	-0.011620400428771972	-0.021251499176025392	0.9774920043945312	-0.019649099349975586	-0.021996099472045897	0.998969970703125	-0.031490100860595706	-0.021459699630737305	1.0370400390625	-0.015156100273132325	0.022559799194335938	0.945427001953125	-0.017925199508666993	0.01593939971923828	0.9694910278320312	-0.027457799911499024	0.008667360305786133	0.9971229858398437	-0.03954010009765625	-0.000134822994470596	1.0362900390625	-0.014866700172424316	0.05060260009765625	0.9644400024414063	-0.02357029914855957	0.043362998962402345	0.9864990234375	-0.03526150131225586	0.03354909896850586	1.0100800170898439	-0.047484500885009766	0.019606300354003906	1.04506005859375	-0.025638999938964843	0.0728511962890625	1.0100700073242188	-0.036275199890136715	0.06444039916992188	1.02472998046875	-0.045765098571777345	0.05522859954833984	1.0380799560546874	-0.0522150993347168	0.038700698852539066	1.0609200439453126	-0.07273249816894531	-0.009157130241394043	1.1171700439453125
35	1.1666666666666667	-0.010522100448608398	-0.0812834014892578	1.0311600341796876	-0.014512700080871582	-0.06110879898071289	1.048239990234375	-0.025664199829101564	-0.04704410171508789	1.0730699462890625	-0.0384005012512207	-0.020613700866699218	1.0959000244140624	-0.006364049911499023	-0.02063450050354004	0.9552860107421876	-0.01206719970703125	-0.02116309928894043	0.9773140258789063	-0.01994230079650879	-0.021840599060058592	0.9988510131835937	-0.031398399353027344	-0.021136899948120118	1.0369300537109376	-0.016701900482177734	0.022885900497436523	0.9450009765625	-0.019005699157714842	0.01627050018310547	0.9691290283203124	-0.028063199996948243	0.009019430160522462	0.99697998046875	-0.03957590103149414	0.000208162993192672	1.036300048828125	-0.015960700035095216	0.05078900146484375	0.9639299926757813	-0.024225900650024414	0.0435901985168457	0.98627197265625	-0.035611499786376954	0.033758399963378906	1.0100700073242188	-0.04738199996948242	0.01988599967956543	1.0451800537109375	-0.025001100540161133	0.072877197265625	1.01025	-0.03562319946289062	0.06454560089111328	1.0248199462890626	-0.04525820159912109	0.055369800567626956	1.03822998046875	-0.051841201782226565	0.0389552001953125	1.0611199951171875	-0.07225309753417969	-0.008867910385131836	1.117469970703125
36	1.2	-0.010441399574279786	-0.08092639923095703	1.0311500244140626	-0.014461400032043457	-0.060713001251220707	1.048239990234375	-0.0255664005279541	-0.04655699920654297	1.073030029296875	-0.03836209869384766	-0.02008250045776367	1.09581005859375	-0.00616264009475708	-0.020922000885009766	0.955344970703125	-0.011984399795532227	-0.02130769920349121	0.977322998046875	-0.019987199783325197	-0.0218533992767334	0.9987899780273437	-0.03161370086669922	-0.020993700027465822	1.0369000244140625	-0.017684400558471678	0.022040300369262696	0.9444459838867187	-0.01986870002746582	0.015698900222778322	0.9686320190429687	-0.028797300338745117	0.008705869674682617	0.9965869750976563	-0.03990959930419922	0.00032619699835777206	1.03631005859375	-0.017347299575805664	0.0499026985168457	0.9630499877929688	-0.02545330047607422	0.042940898895263674	0.9855159912109375	-0.0366416015625	0.03337770080566406	1.0094500122070313	-0.04780970001220703	0.01998390007019043	1.0448800048828124	-0.02624530029296875	0.07361380004882813	1.009760009765625	-0.03680630111694336	0.06508090209960937	1.0245	-0.04613420104980469	0.05581819915771485	1.037949951171875	-0.05247330093383789	0.03920050048828125	1.06077001953125	-0.07230400085449219	-0.008331560134887695	1.11743994140625
37	1.2333333333333334	-0.010163700103759766	-0.08010070037841797	1.030550048828125	-0.014399100303649902	-0.06006060028076172	1.0478499755859374	-0.025675600051879882	-0.046174999237060546	1.0728199462890624	-0.03866249847412109	-0.019850799560546875	1.0958599853515625	-0.006086820125579834	-0.019720699310302733	0.9553189697265625	-0.012104399681091308	-0.02039699935913086	0.97722802734375	-0.020235599517822264	-0.02123069953918457	0.998677001953125	-0.03190320014953613	-0.020705499649047852	1.0368299560546874	-0.016437000274658203	0.023262899398803712	0.94497802734375	-0.0194960994720459	0.016566400527954103	0.9689199829101562	-0.029194400787353515	0.009276029586791992	0.9964910278320313	-0.04036470031738281	0.0006090620160102841	1.036030029296875	-0.016711299896240234	0.051453601837158205	0.9638519897460938	-0.025274299621582032	0.04413359832763672	0.985969970703125	-0.036893798828125	0.03419070053100586	1.0095499877929688	-0.048066001892089844	0.020348800659179687	1.0448199462890626	-0.025458799362182618	0.0747427978515625	1.0109600219726562	-0.03624319839477539	0.06606050109863282	1.0253599853515625	-0.045843101501464846	0.056607898712158204	1.03856005859375	-0.05244720077514648	0.03953359985351562	1.060969970703125	-0.07239620208740234	-0.008225469589233399	1.11793994140625
38	1.2666666666666666	-0.009011980056762695	-0.079033203125	1.0305400390625	-0.01364739990234375	-0.059185298919677734	1.0478199462890625	-0.025212499618530275	-0.04551160049438477	1.072780029296875	-0.0385796012878418	-0.019280899047851564	1.0958499755859374	-0.005897389888763428	-0.017585500717163086	0.9555490112304688	-0.0126274995803833	-0.018987499237060546	0.9771640014648437	-0.021240900039672852	-0.02045919990539551	0.998448974609375	-0.032186901092529294	-0.020284400939941407	1.03681005859375	-0.015848600387573242	0.02554800033569336	0.945594970703125	-0.019878000259399415	0.018277500152587892	0.9692160034179688	-0.030274200439453124	0.010420100212097168	0.9964130249023437	-0.040825401306152344	0.001079079985618591	1.0360999755859375	-0.017970199584960937	0.05216189956665039	0.96372998046875	-0.02649760055541992	0.04470000076293945	0.9857239990234375	-0.0381599006652832	0.03464440155029297	1.009469970703125	-0.04846739959716797	0.020839099884033204	1.0449000244140625	-0.024545400619506837	0.07587349700927734	1.0119600219726563	-0.03554949951171875	0.06701619720458984	1.0260400390625	-0.04565570068359375	0.057375198364257814	1.03902001953125	-0.052539600372314456	0.03989929962158203	1.06106005859375	-0.07222059631347656	-0.008056949615478516	1.1171500244140624
